<svg width="23" height="23" viewBox="0 0 23 23" fill="none" xmlns="http://www.w3.org/2000/svg">
<path opacity="0.2" d="M20.125 11.5C20.125 13.2059 19.6192 14.8734 18.6714 16.2918C17.7237 17.7102 16.3767 18.8157 14.8006 19.4685C13.2246 20.1213 11.4904 20.2921 9.81735 19.9593C8.14426 19.6265 6.60744 18.805 5.40121 17.5988C4.19498 16.3926 3.37353 14.8557 3.04073 13.1827C2.70793 11.5096 2.87874 9.77537 3.53154 8.19936C4.18435 6.62334 5.28984 5.2763 6.70821 4.32857C8.12659 3.38085 9.79414 2.875 11.5 2.875C13.7875 2.875 15.9813 3.7837 17.5988 5.4012C19.2163 7.01871 20.125 9.21251 20.125 11.5Z" fill="#21A67A"/>
<path d="M15.6023 8.83523C15.6691 8.90199 15.7221 8.98126 15.7583 9.06851C15.7945 9.15577 15.8131 9.2493 15.8131 9.34375C15.8131 9.4382 15.7945 9.53173 15.7583 9.61899C15.7221 9.70624 15.6691 9.78551 15.6023 9.85227L10.571 14.8835C10.5043 14.9503 10.425 15.0034 10.3377 15.0395C10.2505 15.0757 10.157 15.0943 10.0625 15.0943C9.96805 15.0943 9.87452 15.0757 9.78727 15.0395C9.70001 15.0034 9.62074 14.9503 9.55399 14.8835L7.39774 12.7273C7.26287 12.5924 7.1871 12.4095 7.1871 12.2188C7.1871 12.028 7.26287 11.8451 7.39774 11.7102C7.5326 11.5754 7.71552 11.4996 7.90625 11.4996C8.09698 11.4996 8.2799 11.5754 8.41477 11.7102L10.0625 13.3589L14.5852 8.83523C14.652 8.76841 14.7313 8.71539 14.8185 8.67922C14.9058 8.64305 14.9993 8.62443 15.0938 8.62443C15.1882 8.62443 15.2817 8.64305 15.369 8.67922C15.4562 8.71539 15.5355 8.76841 15.6023 8.83523ZM20.8438 11.5C20.8438 13.348 20.2958 15.1545 19.269 16.6911C18.2423 18.2277 16.783 19.4253 15.0757 20.1325C13.3684 20.8397 11.4896 21.0247 9.67713 20.6642C7.86462 20.3037 6.19972 19.4138 4.89298 18.107C3.58623 16.8003 2.69632 15.1354 2.33579 13.3229C1.97526 11.5104 2.1603 9.63165 2.8675 7.9243C3.57471 6.21695 4.77232 4.75766 6.30889 3.73096C7.84547 2.70425 9.65198 2.15625 11.5 2.15625C13.9773 2.15887 16.3524 3.14413 18.1041 4.89586C19.8559 6.64759 20.8411 9.02269 20.8438 11.5ZM19.4063 11.5C19.4063 9.93629 18.9426 8.4077 18.0738 7.10752C17.2051 5.80735 15.9703 4.79398 14.5256 4.19558C13.0809 3.59717 11.4912 3.4406 9.95757 3.74567C8.42391 4.05073 7.01515 4.80373 5.90944 5.90944C4.80373 7.01515 4.05073 8.42391 3.74567 9.95757C3.44061 11.4912 3.59718 13.0809 4.19558 14.5256C4.79399 15.9703 5.80735 17.2051 7.10753 18.0738C8.4077 18.9426 9.9363 19.4062 11.5 19.4062C13.5961 19.4039 15.6057 18.5701 17.0879 17.0879C18.5701 15.6057 19.4039 13.5961 19.4063 11.5Z" fill="#21A67A"/>
</svg>
