<svg width="23" height="23" viewBox="0 0 23 23" fill="none" xmlns="http://www.w3.org/2000/svg">
<path d="M15.4747 8.96281C15.5756 9.06389 15.6323 9.2009 15.6323 9.34375C15.6323 9.4866 15.5756 9.62361 15.4747 9.72469L10.4434 14.7559C10.3424 14.8569 10.2054 14.9136 10.0625 14.9136C9.91965 14.9136 9.78264 14.8569 9.68157 14.7559L7.52532 12.5997C7.4301 12.4975 7.37826 12.3623 7.38072 12.2227C7.38319 12.083 7.43976 11.9498 7.53853 11.851C7.63729 11.7523 7.77054 11.6957 7.91019 11.6932C8.04985 11.6908 8.185 11.7426 8.28719 11.8378L10.0625 13.6122L14.7128 8.96281C14.8139 8.86186 14.9509 8.80516 15.0938 8.80516C15.2366 8.80516 15.3736 8.86186 15.4747 8.96281ZM20.6641 11.5C20.6641 13.3125 20.1266 15.0843 19.1196 16.5913C18.1127 18.0983 16.6815 19.2729 15.0069 19.9665C13.3324 20.6601 11.4898 20.8416 9.71218 20.488C7.93453 20.1344 6.30165 19.2616 5.02003 17.98C3.73842 16.6984 2.86562 15.0655 2.51203 13.2878C2.15843 11.5102 2.33991 9.66758 3.03351 7.99307C3.72712 6.31855 4.9017 4.88732 6.40872 3.88036C7.91575 2.8734 9.68752 2.33594 11.5 2.33594C13.9296 2.33879 16.2588 3.3052 17.9768 5.02318C19.6948 6.74116 20.6612 9.07042 20.6641 11.5ZM19.5859 11.5C19.5859 9.90075 19.1117 8.33742 18.2232 7.00769C17.3347 5.67797 16.0719 4.64157 14.5944 4.02957C13.1168 3.41756 11.491 3.25743 9.92252 3.56943C8.354 3.88143 6.91322 4.65154 5.78238 5.78238C4.65154 6.91322 3.88143 8.35399 3.56944 9.92251C3.25744 11.491 3.41757 13.1168 4.02957 14.5944C4.64158 16.0719 5.67797 17.3347 7.0077 18.2232C8.33742 19.1117 9.90076 19.5859 11.5 19.5859C13.6438 19.5836 15.6991 18.7309 17.215 17.215C18.7309 15.6991 19.5836 13.6438 19.5859 11.5Z" fill="#C4C4C4"/>
</svg>
